<?xml version="1.0" encoding="UTF-8" standalone="no"?>
<!DOCTYPE svg PUBLIC "-//W3C//DTD SVG 1.1//EN"
 "http://www.w3.org/Graphics/SVG/1.1/DTD/svg11.dtd">
<!-- Generated by graphviz version 2.43.0 (0)
 -->
<!-- Title: ouitoulia Pages: 1 -->
<svg width="1242pt" height="1154pt"
 viewBox="0.00 0.00 1242.00 1154.00" xmlns="http://www.w3.org/2000/svg" xmlns:xlink="http://www.w3.org/1999/xlink">
<g id="graph0" class="graph" transform="scale(1 1) rotate(0) translate(4 1150)">
<title>ouitoulia</title>
<polygon fill="white" stroke="transparent" points="-4,4 -4,-1150 1238,-1150 1238,4 -4,4"/>
<!-- taxonomyMaterie -->
<g id="node1" class="node">
<title>taxonomyMaterie</title>
<polygon fill="none" stroke="green" points="782.5,-760.5 782.5,-864.5 1139.5,-864.5 1139.5,-760.5 782.5,-760.5"/>
<text text-anchor="middle" x="961" y="-847.7" font-family="Times,serif" font-size="16.00">Materie (taxonomy_term:bundle:materie)</text>
<polyline fill="none" stroke="green" points="782.5,-838.5 1139.5,-838.5 "/>
<text text-anchor="middle" x="961" y="-821.7" font-family="Times,serif" font-size="16.00">Item 1</text>
<polyline fill="none" stroke="green" points="782.5,-812.5 1139.5,-812.5 "/>
<text text-anchor="middle" x="961" y="-795.7" font-family="Times,serif" font-size="16.00">Item 2</text>
<polyline fill="none" stroke="green" points="782.5,-786.5 1139.5,-786.5 "/>
<text text-anchor="middle" x="961" y="-769.7" font-family="Times,serif" font-size="16.00">Item 3</text>
</g>
<!-- taxonomyRuoliPersona -->
<g id="node2" class="node">
<title>taxonomyRuoliPersona</title>
<polygon fill="none" stroke="green" points="733.5,-937.5 733.5,-1145.5 1188.5,-1145.5 1188.5,-937.5 733.5,-937.5"/>
<text text-anchor="middle" x="961" y="-1128.7" font-family="Times,serif" font-size="16.00">Ruoli persona (taxonomy_term:bundle:ruoli_persona)</text>
<polyline fill="none" stroke="green" points="733.5,-1119.5 1188.5,-1119.5 "/>
<text text-anchor="middle" x="961" y="-1102.7" font-family="Times,serif" font-size="16.00">Dirigente scolastico</text>
<polyline fill="none" stroke="green" points="733.5,-1093.5 1188.5,-1093.5 "/>
<text text-anchor="middle" x="961" y="-1076.7" font-family="Times,serif" font-size="16.00">Personale docente</text>
<polyline fill="none" stroke="green" points="733.5,-1067.5 1188.5,-1067.5 "/>
<text text-anchor="middle" x="961" y="-1050.7" font-family="Times,serif" font-size="16.00">Personale non docente</text>
<polyline fill="none" stroke="green" points="733.5,-1041.5 1188.5,-1041.5 "/>
<text text-anchor="middle" x="961" y="-1024.7" font-family="Times,serif" font-size="16.00">DSGA</text>
<polyline fill="none" stroke="green" points="733.5,-1015.5 1188.5,-1015.5 "/>
<text text-anchor="middle" x="961" y="-998.7" font-family="Times,serif" font-size="16.00">Personale amministrativo</text>
<polyline fill="none" stroke="green" points="733.5,-989.5 1188.5,-989.5 "/>
<text text-anchor="middle" x="961" y="-972.7" font-family="Times,serif" font-size="16.00">Personale tecnico</text>
<polyline fill="none" stroke="green" points="733.5,-963.5 1188.5,-963.5 "/>
<text text-anchor="middle" x="961" y="-946.7" font-family="Times,serif" font-size="16.00">Collaboratore</text>
</g>
<!-- taxonomyTipologiaIncarichi -->
<g id="node3" class="node">
<title>taxonomyTipologiaIncarichi</title>
<polygon fill="none" stroke="green" points="693.5,-354.5 693.5,-432.5 1228.5,-432.5 1228.5,-354.5 693.5,-354.5"/>
<text text-anchor="middle" x="961" y="-415.7" font-family="Times,serif" font-size="16.00">Tipologia incarichi (taxonomy_term:bundle:tipologia_incarichi)</text>
<polyline fill="none" stroke="green" points="693.5,-406.5 1228.5,-406.5 "/>
<text text-anchor="middle" x="961" y="-389.7" font-family="Times,serif" font-size="16.00">Determinato</text>
<polyline fill="none" stroke="green" points="693.5,-380.5 1228.5,-380.5 "/>
<text text-anchor="middle" x="961" y="-363.7" font-family="Times,serif" font-size="16.00">Indeterminato</text>
</g>
<!-- taxonomyTipologiaPosti -->
<g id="node4" class="node">
<title>taxonomyTipologiaPosti</title>
<polygon fill="none" stroke="green" points="725,-177.5 725,-281.5 1197,-281.5 1197,-177.5 725,-177.5"/>
<text text-anchor="middle" x="961" y="-264.7" font-family="Times,serif" font-size="16.00">Tipologia posti (taxonomy_term:bundle:tipologia_posti)</text>
<polyline fill="none" stroke="green" points="725,-255.5 1197,-255.5 "/>
<text text-anchor="middle" x="961" y="-238.7" font-family="Times,serif" font-size="16.00">Comune</text>
<polyline fill="none" stroke="green" points="725,-229.5 1197,-229.5 "/>
<text text-anchor="middle" x="961" y="-212.7" font-family="Times,serif" font-size="16.00">Potenziamento</text>
<polyline fill="none" stroke="green" points="725,-203.5 1197,-203.5 "/>
<text text-anchor="middle" x="961" y="-186.7" font-family="Times,serif" font-size="16.00">Sostegno</text>
</g>
<!-- taxonomyTipologiaSupplenze -->
<g id="node5" class="node">
<title>taxonomyTipologiaSupplenze</title>
<polygon fill="none" stroke="green" points="688,-0.5 688,-104.5 1234,-104.5 1234,-0.5 688,-0.5"/>
<text text-anchor="middle" x="961" y="-87.7" font-family="Times,serif" font-size="16.00">Tipologia supplenze (taxonomy_term:bundle:tipologia_incarichi)</text>
<polyline fill="none" stroke="green" points="688,-78.5 1234,-78.5 "/>
<text text-anchor="middle" x="961" y="-61.7" font-family="Times,serif" font-size="16.00">Item 1</text>
<polyline fill="none" stroke="green" points="688,-52.5 1234,-52.5 "/>
<text text-anchor="middle" x="961" y="-35.7" font-family="Times,serif" font-size="16.00">Item 2</text>
<polyline fill="none" stroke="green" points="688,-26.5 1234,-26.5 "/>
<text text-anchor="middle" x="961" y="-9.7" font-family="Times,serif" font-size="16.00">Item 3</text>
</g>
<!-- paragraph -->
<g id="node6" class="node">
<title>paragraph</title>
<polygon fill="none" stroke="blue" points="795.5,-505.5 795.5,-687.5 1126.5,-687.5 1126.5,-505.5 795.5,-505.5"/>
<text text-anchor="middle" x="961" y="-670.7" font-family="Times,serif" font-size="16.00">Paragraph Bundles (entity:paragraph)</text>
<polyline fill="none" stroke="blue" points="795.5,-661.5 1126.5,-661.5 "/>
<text text-anchor="middle" x="961" y="-644.7" font-family="Times,serif" font-size="16.00">Content</text>
<polyline fill="none" stroke="blue" points="795.5,-635.5 1126.5,-635.5 "/>
<text text-anchor="middle" x="961" y="-618.7" font-family="Times,serif" font-size="16.00">Attachments</text>
<polyline fill="none" stroke="blue" points="795.5,-609.5 1126.5,-609.5 "/>
<text text-anchor="middle" x="961" y="-592.7" font-family="Times,serif" font-size="16.00">Accordion</text>
<polyline fill="none" stroke="blue" points="795.5,-583.5 1126.5,-583.5 "/>
<text text-anchor="middle" x="961" y="-566.7" font-family="Times,serif" font-size="16.00">Carousel</text>
<polyline fill="none" stroke="blue" points="795.5,-557.5 1126.5,-557.5 "/>
<text text-anchor="middle" x="961" y="-540.7" font-family="Times,serif" font-size="16.00">Gallery</text>
<polyline fill="none" stroke="blue" points="795.5,-531.5 1126.5,-531.5 "/>
<text text-anchor="middle" x="961" y="-514.7" font-family="Times,serif" font-size="16.00">...</text>
</g>
<!-- nodePersona -->
<g id="node7" class="node">
<title>nodePersona</title>
<polygon fill="none" stroke="orange" points="0,-312.5 0,-962.5 588,-962.5 588,-312.5 0,-312.5"/>
<text text-anchor="middle" x="294" y="-945.7" font-family="Times,serif" font-size="16.00">Persona (node:bundle:persona)</text>
<polyline fill="none" stroke="orange" points="0,-936.5 588,-936.5 "/>
<text text-anchor="middle" x="294" y="-919.7" font-family="Times,serif" font-size="16.00">Nome (field_nome) *</text>
<polyline fill="none" stroke="orange" points="0,-910.5 588,-910.5 "/>
<text text-anchor="middle" x="294" y="-893.7" font-family="Times,serif" font-size="16.00">Cognome (field_cognome) *</text>
<polyline fill="none" stroke="orange" points="0,-884.5 588,-884.5 "/>
<text text-anchor="middle" x="294" y="-867.7" font-family="Times,serif" font-size="16.00">Foto della persona (field_ritratto)</text>
<polyline fill="none" stroke="orange" points="0,-858.5 588,-858.5 "/>
<text text-anchor="middle" x="294" y="-841.7" font-family="Times,serif" font-size="16.00">Ruolo nell&#39;organizzazione (field_ruolo_persona) *</text>
<polyline fill="none" stroke="orange" points="0,-832.5 588,-832.5 "/>
<text text-anchor="middle" x="294" y="-815.7" font-family="Times,serif" font-size="16.00">Ruolo (secondo livello)</text>
<polyline fill="none" stroke="orange" points="0,-806.5 588,-806.5 "/>
<text text-anchor="middle" x="294" y="-789.7" font-family="Times,serif" font-size="16.00">Biografia (field_abstract) *</text>
<polyline fill="none" stroke="orange" points="0,-780.5 588,-780.5 "/>
<text text-anchor="middle" x="294" y="-763.7" font-family="Times,serif" font-size="16.00">Dove lavora (view_luoghi?idPersona)</text>
<polyline fill="none" stroke="orange" points="0,-754.5 588,-754.5 "/>
<text text-anchor="middle" x="294" y="-737.7" font-family="Times,serif" font-size="16.00">Strutture di cui la persona è responsabile (view_strutture?idPersona)</text>
<polyline fill="none" stroke="orange" points="0,-728.5 588,-728.5 "/>
<text text-anchor="middle" x="294" y="-711.7" font-family="Times,serif" font-size="16.00">Materie (field_materie)</text>
<polyline fill="none" stroke="orange" points="0,-702.5 588,-702.5 "/>
<text text-anchor="middle" x="294" y="-685.7" font-family="Times,serif" font-size="16.00">Schede didattiche (view_schede_didattiche?idPersona)</text>
<polyline fill="none" stroke="orange" points="0,-676.5 588,-676.5 "/>
<text text-anchor="middle" x="294" y="-659.7" font-family="Times,serif" font-size="16.00">Progetti (view_progetti?idPersona)</text>
<polyline fill="none" stroke="orange" points="0,-650.5 588,-650.5 "/>
<text text-anchor="middle" x="294" y="-633.7" font-family="Times,serif" font-size="16.00">Documenti (view_documenti?idPersona)</text>
<polyline fill="none" stroke="orange" points="0,-624.5 588,-624.5 "/>
<text text-anchor="middle" x="294" y="-607.7" font-family="Times,serif" font-size="16.00">Ulteriori informazioni (field_extra_info)</text>
<polyline fill="none" stroke="orange" points="0,-598.5 588,-598.5 "/>
<text text-anchor="middle" x="294" y="-581.7" font-family="Times,serif" font-size="16.00">Numero di telefono pubblico (field_telefono)</text>
<polyline fill="none" stroke="orange" points="0,-572.5 588,-572.5 "/>
<text text-anchor="middle" x="294" y="-555.7" font-family="Times,serif" font-size="16.00">Indirizzo email pubblico (field_email)</text>
<polyline fill="none" stroke="orange" points="0,-546.5 588,-546.5 "/>
<text text-anchor="middle" x="294" y="-529.7" font-family="Times,serif" font-size="16.00">Metadati (display)</text>
<polyline fill="none" stroke="orange" points="0,-520.5 588,-520.5 "/>
<text text-anchor="middle" x="294" y="-503.7" font-family="Times,serif" font-size="16.00">Corellati (view_related?idPersona)</text>
<polyline fill="none" stroke="orange" points="0,-494.5 588,-494.5 "/>
<text text-anchor="middle" x="294" y="-477.7" font-family="Times,serif" font-size="16.00">Tipologia incarico (field_tipologia_incarico) *</text>
<polyline fill="none" stroke="orange" points="0,-468.5 588,-468.5 "/>
<text text-anchor="middle" x="294" y="-451.7" font-family="Times,serif" font-size="16.00">Darata incarico (field_data_fine) *</text>
<polyline fill="none" stroke="orange" points="0,-442.5 588,-442.5 "/>
<text text-anchor="middle" x="294" y="-425.7" font-family="Times,serif" font-size="16.00">Tipo posto (field_tipologia_posto)</text>
<polyline fill="none" stroke="orange" points="0,-416.5 588,-416.5 "/>
<text text-anchor="middle" x="294" y="-399.7" font-family="Times,serif" font-size="16.00">Tipo supplenza (field_tipologia_supplenza) *</text>
<polyline fill="none" stroke="orange" points="0,-390.5 588,-390.5 "/>
<text text-anchor="middle" x="294" y="-373.7" font-family="Times,serif" font-size="16.00">Genere (field_genere)</text>
<polyline fill="none" stroke="orange" points="0,-364.5 588,-364.5 "/>
<text text-anchor="middle" x="294" y="-347.7" font-family="Times,serif" font-size="16.00">Data di nascita (field_data_nascita)</text>
<polyline fill="none" stroke="orange" points="0,-338.5 588,-338.5 "/>
<text text-anchor="middle" x="294" y="-321.7" font-family="Times,serif" font-size="16.00">Codice fiscale (field_codice_fiscale)</text>
</g>
<!-- nodePersona&#45;&gt;taxonomyMaterie -->
<g id="1" class="edge">
<title>nodePersona:field_materie&#45;&gt;taxonomyMaterie:taxonomyBundle</title>
<path fill="none" stroke="green" d="M588,-715.5C689.45,-715.5 677.05,-842.62 770.94,-851.06"/>
<polygon fill="green" stroke="green" points="771.01,-851.06 780.8,-856 776,-851.28 781,-851.5 781,-851.5 781,-851.5 776,-851.28 781.2,-847 771.01,-851.06 771.01,-851.06"/>
<text text-anchor="middle" x="638" y="-741.3" font-family="Times,serif" font-size="14.00">1..*</text>
</g>
<!-- nodePersona&#45;&gt;taxonomyRuoliPersona -->
<g id="1" class="edge">
<title>nodePersona:field_ruolo_persona&#45;&gt;taxonomyRuoliPersona:taxonomyBundle</title>
<path fill="none" stroke="green" d="M588,-845.5C727.09,-845.5 596.29,-1118.11 721.67,-1131.95"/>
<polygon fill="green" stroke="green" points="722.01,-1131.97 731.76,-1136.99 727.01,-1132.24 732,-1132.5 732,-1132.5 732,-1132.5 727.01,-1132.24 732.24,-1128.01 722.01,-1131.97 722.01,-1131.97"/>
<text text-anchor="middle" x="638" y="-897.3" font-family="Times,serif" font-size="14.00">1..*</text>
</g>
<!-- nodePersona&#45;&gt;taxonomyTipologiaIncarichi -->
<g id="1" class="edge">
<title>nodePersona:field_tipologia_incarico&#45;&gt;taxonomyTipologiaIncarichi:taxonomyBundle</title>
<path fill="none" stroke="green" d="M588,-481.5C640.03,-481.5 638.36,-423.55 686.83,-419.7"/>
<polygon fill="green" stroke="green" points="690.81,-414.54 691.19,-424.53 689.2,-424.61 688.81,-414.62 690.81,-414.54"/>
<polyline fill="none" stroke="green" points="692,-419.5 687,-419.69 "/>
<text text-anchor="middle" x="638" y="-472.3" font-family="Times,serif" font-size="14.00">1..1</text>
</g>
<!-- nodePersona&#45;&gt;taxonomyTipologiaPosti -->
<g id="1" class="edge">
<title>nodePersona:field_tipologia_posto&#45;&gt;taxonomyTipologiaPosti:taxonomyBundle</title>
<path fill="none" stroke="green" d="M588,-429.5C633.1,-429.5 674.02,-280.23 718.8,-269.15"/>
<polygon fill="green" stroke="green" points="722.39,-263.66 723.63,-273.59 721.64,-273.83 720.4,-263.91 722.39,-263.66"/>
<polyline fill="none" stroke="green" points="724,-268.5 719.04,-269.12 "/>
<text text-anchor="middle" x="638" y="-403.3" font-family="Times,serif" font-size="14.00">1..1</text>
</g>
<!-- nodePersona&#45;&gt;taxonomyTipologiaSupplenze -->
<g id="1" class="edge">
<title>nodePersona:field_tipologia_supplenza&#45;&gt;taxonomyTipologiaSupplenze:taxonomyBundle</title>
<path fill="none" stroke="green" d="M588,-403.5C622.7,-403.5 649.03,-120.06 682.94,-93.49"/>
<polygon fill="green" stroke="green" points="685.24,-87.21 688.9,-96.52 687.04,-97.25 683.38,-87.95 685.24,-87.21"/>
<polyline fill="none" stroke="green" points="688,-91.5 683.35,-93.33 "/>
<text text-anchor="middle" x="638" y="-315.3" font-family="Times,serif" font-size="14.00">1..1</text>
</g>
<!-- nodePersona&#45;&gt;paragraph -->
<g id="1" class="edge">
<title>nodePersona:field_extra_info&#45;&gt;paragraph:paragraphBundle</title>
<path fill="none" stroke="blue" d="M588,-611.5C680.28,-611.5 697.1,-670.03 783.93,-674.26"/>
<polygon fill="blue" stroke="blue" points="784,-674.26 793.89,-679 789,-674.38 794,-674.5 794,-674.5 794,-674.5 789,-674.38 794.11,-670 784,-674.26 784,-674.26"/>
<text text-anchor="middle" x="638" y="-626.3" font-family="Times,serif" font-size="14.00">1..*</text>
</g>
</g>
</svg>
