<?xml version="1.0" encoding="UTF-8" standalone="no"?>
<!DOCTYPE svg PUBLIC "-//W3C//DTD SVG 1.1//EN"
 "http://www.w3.org/Graphics/SVG/1.1/DTD/svg11.dtd">
<!-- Generated by graphviz version 2.43.0 (0)
 -->
<!-- Title: ouitoulia Pages: 1 -->
<svg width="1826pt" height="3420pt"
 viewBox="0.00 0.00 1826.00 3420.00" xmlns="http://www.w3.org/2000/svg" xmlns:xlink="http://www.w3.org/1999/xlink">
<g id="graph0" class="graph" transform="scale(1 1) rotate(0) translate(4 3416)">
<title>ouitoulia</title>
<polygon fill="white" stroke="transparent" points="-4,4 -4,-3416 1822,-3416 1822,4 -4,4"/>
<!-- address -->
<g id="node1" class="node">
<title>address</title>
<polygon fill="none" stroke="purple" points="1461.5,-1624.5 1461.5,-1754.5 1625.5,-1754.5 1625.5,-1624.5 1461.5,-1624.5"/>
<text text-anchor="middle" x="1543.5" y="-1737.7" font-family="Times,serif" font-size="16.00">Address (address)</text>
<polyline fill="none" stroke="purple" points="1461.5,-1728.5 1625.5,-1728.5 "/>
<text text-anchor="middle" x="1543.5" y="-1711.7" font-family="Times,serif" font-size="16.00">Via</text>
<polyline fill="none" stroke="purple" points="1461.5,-1702.5 1625.5,-1702.5 "/>
<text text-anchor="middle" x="1543.5" y="-1685.7" font-family="Times,serif" font-size="16.00">CAP</text>
<polyline fill="none" stroke="purple" points="1461.5,-1676.5 1625.5,-1676.5 "/>
<text text-anchor="middle" x="1543.5" y="-1659.7" font-family="Times,serif" font-size="16.00">Provincia</text>
<polyline fill="none" stroke="purple" points="1461.5,-1650.5 1625.5,-1650.5 "/>
<text text-anchor="middle" x="1543.5" y="-1633.7" font-family="Times,serif" font-size="16.00">...</text>
</g>
<!-- media -->
<g id="node2" class="node">
<title>media</title>
<polygon fill="none" stroke="red" points="1413,-1827.5 1413,-1957.5 1674,-1957.5 1674,-1827.5 1413,-1827.5"/>
<text text-anchor="middle" x="1543.5" y="-1940.7" font-family="Times,serif" font-size="16.00">Media Bundles (entity:media)</text>
<polyline fill="none" stroke="red" points="1413,-1931.5 1674,-1931.5 "/>
<text text-anchor="middle" x="1543.5" y="-1914.7" font-family="Times,serif" font-size="16.00">Immagine</text>
<polyline fill="none" stroke="red" points="1413,-1905.5 1674,-1905.5 "/>
<text text-anchor="middle" x="1543.5" y="-1888.7" font-family="Times,serif" font-size="16.00">Video</text>
<polyline fill="none" stroke="red" points="1413,-1879.5 1674,-1879.5 "/>
<text text-anchor="middle" x="1543.5" y="-1862.7" font-family="Times,serif" font-size="16.00">Audio</text>
<polyline fill="none" stroke="red" points="1413,-1853.5 1674,-1853.5 "/>
<text text-anchor="middle" x="1543.5" y="-1836.7" font-family="Times,serif" font-size="16.00">...</text>
</g>
<!-- paragraph -->
<g id="node3" class="node">
<title>paragraph</title>
<polygon fill="none" stroke="blue" points="1378,-1166.5 1378,-1348.5 1709,-1348.5 1709,-1166.5 1378,-1166.5"/>
<text text-anchor="middle" x="1543.5" y="-1331.7" font-family="Times,serif" font-size="16.00">Paragraph Bundles (entity:paragraph)</text>
<polyline fill="none" stroke="blue" points="1378,-1322.5 1709,-1322.5 "/>
<text text-anchor="middle" x="1543.5" y="-1305.7" font-family="Times,serif" font-size="16.00">Content</text>
<polyline fill="none" stroke="blue" points="1378,-1296.5 1709,-1296.5 "/>
<text text-anchor="middle" x="1543.5" y="-1279.7" font-family="Times,serif" font-size="16.00">Attachments</text>
<polyline fill="none" stroke="blue" points="1378,-1270.5 1709,-1270.5 "/>
<text text-anchor="middle" x="1543.5" y="-1253.7" font-family="Times,serif" font-size="16.00">Accordion</text>
<polyline fill="none" stroke="blue" points="1378,-1244.5 1709,-1244.5 "/>
<text text-anchor="middle" x="1543.5" y="-1227.7" font-family="Times,serif" font-size="16.00">Carousel</text>
<polyline fill="none" stroke="blue" points="1378,-1218.5 1709,-1218.5 "/>
<text text-anchor="middle" x="1543.5" y="-1201.7" font-family="Times,serif" font-size="16.00">Gallery</text>
<polyline fill="none" stroke="blue" points="1378,-1192.5 1709,-1192.5 "/>
<text text-anchor="middle" x="1543.5" y="-1175.7" font-family="Times,serif" font-size="16.00">...</text>
</g>
<!-- taxonomyArgomenti -->
<g id="node4" class="node">
<title>taxonomyArgomenti</title>
<polygon fill="none" stroke="green" points="1296.5,-2389.5 1296.5,-2493.5 1790.5,-2493.5 1790.5,-2389.5 1296.5,-2389.5"/>
<text text-anchor="middle" x="1543.5" y="-2476.7" font-family="Times,serif" font-size="16.00">Le parole della scuola (taxonomy_term:bundle:argomenti)</text>
<polyline fill="none" stroke="green" points="1296.5,-2467.5 1790.5,-2467.5 "/>
<text text-anchor="middle" x="1543.5" y="-2450.7" font-family="Times,serif" font-size="16.00">Item 1</text>
<polyline fill="none" stroke="green" points="1296.5,-2441.5 1790.5,-2441.5 "/>
<text text-anchor="middle" x="1543.5" y="-2424.7" font-family="Times,serif" font-size="16.00">Item 2</text>
<polyline fill="none" stroke="green" points="1296.5,-2415.5 1790.5,-2415.5 "/>
<text text-anchor="middle" x="1543.5" y="-2398.7" font-family="Times,serif" font-size="16.00">Item 3</text>
</g>
<!-- taxonomyAttributiDeiLuoghi -->
<g id="node5" class="node">
<title>taxonomyAttributiDeiLuoghi</title>
<polygon fill="none" stroke="green" points="1269,-1421.5 1269,-1551.5 1818,-1551.5 1818,-1421.5 1269,-1421.5"/>
<text text-anchor="middle" x="1543.5" y="-1534.7" font-family="Times,serif" font-size="16.00">Attributi dei luoghi (taxonomy_term:bundle:attributi_dei_luoghi)</text>
<polyline fill="none" stroke="green" points="1269,-1525.5 1818,-1525.5 "/>
<text text-anchor="middle" x="1543.5" y="-1508.7" font-family="Times,serif" font-size="16.00">Parcheggio</text>
<polyline fill="none" stroke="green" points="1269,-1499.5 1818,-1499.5 "/>
<text text-anchor="middle" x="1543.5" y="-1482.7" font-family="Times,serif" font-size="16.00">Parcheggio Acccessibile</text>
<polyline fill="none" stroke="green" points="1269,-1473.5 1818,-1473.5 "/>
<text text-anchor="middle" x="1543.5" y="-1456.7" font-family="Times,serif" font-size="16.00">Ingresso</text>
<polyline fill="none" stroke="green" points="1269,-1447.5 1818,-1447.5 "/>
<text text-anchor="middle" x="1543.5" y="-1430.7" font-family="Times,serif" font-size="16.00">Ingresso acccessibile</text>
</g>
<!-- taxonomyAzioni -->
<g id="node6" class="node">
<title>taxonomyAzioni</title>
<polygon fill="none" stroke="green" points="458.5,-2110.5 458.5,-2318.5 800.5,-2318.5 800.5,-2110.5 458.5,-2110.5"/>
<text text-anchor="middle" x="629.5" y="-2301.7" font-family="Times,serif" font-size="16.00">Materie (taxonomy_term:bundle:azioni)</text>
<polyline fill="none" stroke="green" points="458.5,-2292.5 800.5,-2292.5 "/>
<text text-anchor="middle" x="629.5" y="-2275.7" font-family="Times,serif" font-size="16.00">Compila</text>
<polyline fill="none" stroke="green" points="458.5,-2266.5 800.5,-2266.5 "/>
<text text-anchor="middle" x="629.5" y="-2249.7" font-family="Times,serif" font-size="16.00">Scarica</text>
<polyline fill="none" stroke="green" points="458.5,-2240.5 800.5,-2240.5 "/>
<text text-anchor="middle" x="629.5" y="-2223.7" font-family="Times,serif" font-size="16.00">Registrati</text>
<polyline fill="none" stroke="green" points="458.5,-2214.5 800.5,-2214.5 "/>
<text text-anchor="middle" x="629.5" y="-2197.7" font-family="Times,serif" font-size="16.00">Iscriviti</text>
<polyline fill="none" stroke="green" points="458.5,-2188.5 800.5,-2188.5 "/>
<text text-anchor="middle" x="629.5" y="-2171.7" font-family="Times,serif" font-size="16.00">Accedi</text>
<polyline fill="none" stroke="green" points="458.5,-2162.5 800.5,-2162.5 "/>
<text text-anchor="middle" x="629.5" y="-2145.7" font-family="Times,serif" font-size="16.00">Vai al sito</text>
<polyline fill="none" stroke="green" points="458.5,-2136.5 800.5,-2136.5 "/>
<text text-anchor="middle" x="629.5" y="-2119.7" font-family="Times,serif" font-size="16.00">Visualizza</text>
</g>
<!-- taxonomyCosaServe -->
<g id="node7" class="node">
<title>taxonomyCosaServe</title>
<polygon fill="none" stroke="green" points="426,-2391.5 426,-2547.5 833,-2547.5 833,-2391.5 426,-2391.5"/>
<text text-anchor="middle" x="629.5" y="-2530.7" font-family="Times,serif" font-size="16.00">Cosa serve (taxonomy_term:bundle:cosa_serve)</text>
<polyline fill="none" stroke="green" points="426,-2521.5 833,-2521.5 "/>
<text text-anchor="middle" x="629.5" y="-2504.7" font-family="Times,serif" font-size="16.00">Documento</text>
<polyline fill="none" stroke="green" points="426,-2495.5 833,-2495.5 "/>
<text text-anchor="middle" x="629.5" y="-2478.7" font-family="Times,serif" font-size="16.00">Pagamento</text>
<polyline fill="none" stroke="green" points="426,-2469.5 833,-2469.5 "/>
<text text-anchor="middle" x="629.5" y="-2452.7" font-family="Times,serif" font-size="16.00">Iscrizione</text>
<polyline fill="none" stroke="green" points="426,-2443.5 833,-2443.5 "/>
<text text-anchor="middle" x="629.5" y="-2426.7" font-family="Times,serif" font-size="16.00">Firma</text>
<polyline fill="none" stroke="green" points="426,-2417.5 833,-2417.5 "/>
<text text-anchor="middle" x="629.5" y="-2400.7" font-family="Times,serif" font-size="16.00">...</text>
</g>
<!-- taxonomyDestinazioneUso -->
<g id="node8" class="node">
<title>taxonomyDestinazioneUso</title>
<polygon fill="none" stroke="green" points="1314.5,-963.5 1314.5,-1093.5 1772.5,-1093.5 1772.5,-963.5 1314.5,-963.5"/>
<text text-anchor="middle" x="1543.5" y="-1076.7" font-family="Times,serif" font-size="16.00">Cosa serve (taxonomy_term:bundle:destinazione_uso)</text>
<polyline fill="none" stroke="green" points="1314.5,-1067.5 1772.5,-1067.5 "/>
<text text-anchor="middle" x="1543.5" y="-1050.7" font-family="Times,serif" font-size="16.00">Item 1</text>
<polyline fill="none" stroke="green" points="1314.5,-1041.5 1772.5,-1041.5 "/>
<text text-anchor="middle" x="1543.5" y="-1024.7" font-family="Times,serif" font-size="16.00">Item 2</text>
<polyline fill="none" stroke="green" points="1314.5,-1015.5 1772.5,-1015.5 "/>
<text text-anchor="middle" x="1543.5" y="-998.7" font-family="Times,serif" font-size="16.00">Item 3</text>
<polyline fill="none" stroke="green" points="1314.5,-989.5 1772.5,-989.5 "/>
<text text-anchor="middle" x="1543.5" y="-972.7" font-family="Times,serif" font-size="16.00">...</text>
</g>
<!-- taxonomyTipologiaLicenze -->
<g id="node9" class="node">
<title>taxonomyTipologiaLicenze</title>
<polygon fill="none" stroke="green" points="376.5,-2620.5 376.5,-2750.5 882.5,-2750.5 882.5,-2620.5 376.5,-2620.5"/>
<text text-anchor="middle" x="629.5" y="-2733.7" font-family="Times,serif" font-size="16.00">Tipologia licenze (taxonomy_term:bundle:tipologia_licenze)</text>
<polyline fill="none" stroke="green" points="376.5,-2724.5 882.5,-2724.5 "/>
<text text-anchor="middle" x="629.5" y="-2707.7" font-family="Times,serif" font-size="16.00">SPDX: CC&#45;BY&#45;4.0</text>
<polyline fill="none" stroke="green" points="376.5,-2698.5 882.5,-2698.5 "/>
<text text-anchor="middle" x="629.5" y="-2681.7" font-family="Times,serif" font-size="16.00">SPD: CC&#45;BY&#45;SA&#45;4.0</text>
<polyline fill="none" stroke="green" points="376.5,-2672.5 882.5,-2672.5 "/>
<text text-anchor="middle" x="629.5" y="-2655.7" font-family="Times,serif" font-size="16.00">Creative Commons Zero</text>
<polyline fill="none" stroke="green" points="376.5,-2646.5 882.5,-2646.5 "/>
<text text-anchor="middle" x="629.5" y="-2629.7" font-family="Times,serif" font-size="16.00">...</text>
</g>
<!-- taxonomyMaterie -->
<g id="node10" class="node">
<title>taxonomyMaterie</title>
<polygon fill="none" stroke="green" points="1365,-505.5 1365,-609.5 1722,-609.5 1722,-505.5 1365,-505.5"/>
<text text-anchor="middle" x="1543.5" y="-592.7" font-family="Times,serif" font-size="16.00">Materie (taxonomy_term:bundle:materie)</text>
<polyline fill="none" stroke="green" points="1365,-583.5 1722,-583.5 "/>
<text text-anchor="middle" x="1543.5" y="-566.7" font-family="Times,serif" font-size="16.00">Item 1</text>
<polyline fill="none" stroke="green" points="1365,-557.5 1722,-557.5 "/>
<text text-anchor="middle" x="1543.5" y="-540.7" font-family="Times,serif" font-size="16.00">Item 2</text>
<polyline fill="none" stroke="green" points="1365,-531.5 1722,-531.5 "/>
<text text-anchor="middle" x="1543.5" y="-514.7" font-family="Times,serif" font-size="16.00">Item 3</text>
</g>
<!-- taxonomyRuoliPersona -->
<g id="node11" class="node">
<title>taxonomyRuoliPersona</title>
<polygon fill="none" stroke="green" points="1316,-682.5 1316,-890.5 1771,-890.5 1771,-682.5 1316,-682.5"/>
<text text-anchor="middle" x="1543.5" y="-873.7" font-family="Times,serif" font-size="16.00">Ruoli persona (taxonomy_term:bundle:ruoli_persona)</text>
<polyline fill="none" stroke="green" points="1316,-864.5 1771,-864.5 "/>
<text text-anchor="middle" x="1543.5" y="-847.7" font-family="Times,serif" font-size="16.00">Dirigente scolastico</text>
<polyline fill="none" stroke="green" points="1316,-838.5 1771,-838.5 "/>
<text text-anchor="middle" x="1543.5" y="-821.7" font-family="Times,serif" font-size="16.00">Personale docente</text>
<polyline fill="none" stroke="green" points="1316,-812.5 1771,-812.5 "/>
<text text-anchor="middle" x="1543.5" y="-795.7" font-family="Times,serif" font-size="16.00">Personale non docente</text>
<polyline fill="none" stroke="green" points="1316,-786.5 1771,-786.5 "/>
<text text-anchor="middle" x="1543.5" y="-769.7" font-family="Times,serif" font-size="16.00">DSGA</text>
<polyline fill="none" stroke="green" points="1316,-760.5 1771,-760.5 "/>
<text text-anchor="middle" x="1543.5" y="-743.7" font-family="Times,serif" font-size="16.00">Personale amministrativo</text>
<polyline fill="none" stroke="green" points="1316,-734.5 1771,-734.5 "/>
<text text-anchor="middle" x="1543.5" y="-717.7" font-family="Times,serif" font-size="16.00">Personale tecnico</text>
<polyline fill="none" stroke="green" points="1316,-708.5 1771,-708.5 "/>
<text text-anchor="middle" x="1543.5" y="-691.7" font-family="Times,serif" font-size="16.00">Collaboratore</text>
</g>
<!-- taxonomyTipologiaAutenticazioni -->
<g id="node12" class="node">
<title>taxonomyTipologiaAutenticazioni</title>
<polygon fill="none" stroke="green" points="317,-2823.5 317,-2927.5 942,-2927.5 942,-2823.5 317,-2823.5"/>
<text text-anchor="middle" x="629.5" y="-2910.7" font-family="Times,serif" font-size="16.00">Tipologia autenticazioni (taxonomy_term:bundle:tipologia_autenticazioni)</text>
<polyline fill="none" stroke="green" points="317,-2901.5 942,-2901.5 "/>
<text text-anchor="middle" x="629.5" y="-2884.7" font-family="Times,serif" font-size="16.00">SPID</text>
<polyline fill="none" stroke="green" points="317,-2875.5 942,-2875.5 "/>
<text text-anchor="middle" x="629.5" y="-2858.7" font-family="Times,serif" font-size="16.00">CIE</text>
<polyline fill="none" stroke="green" points="317,-2849.5 942,-2849.5 "/>
<text text-anchor="middle" x="629.5" y="-2832.7" font-family="Times,serif" font-size="16.00">Username/Password</text>
</g>
<!-- taxonomyTipologiaIncarichi -->
<g id="node13" class="node">
<title>taxonomyTipologiaIncarichi</title>
<polygon fill="none" stroke="green" points="1276,-354.5 1276,-432.5 1811,-432.5 1811,-354.5 1276,-354.5"/>
<text text-anchor="middle" x="1543.5" y="-415.7" font-family="Times,serif" font-size="16.00">Tipologia incarichi (taxonomy_term:bundle:tipologia_incarichi)</text>
<polyline fill="none" stroke="green" points="1276,-406.5 1811,-406.5 "/>
<text text-anchor="middle" x="1543.5" y="-389.7" font-family="Times,serif" font-size="16.00">Determinato</text>
<polyline fill="none" stroke="green" points="1276,-380.5 1811,-380.5 "/>
<text text-anchor="middle" x="1543.5" y="-363.7" font-family="Times,serif" font-size="16.00">Indeterminato</text>
</g>
<!-- taxonomyTipologiaLuoghi -->
<g id="node14" class="node">
<title>taxonomyTipologiaLuoghi</title>
<polygon fill="none" stroke="green" points="1296.5,-2030.5 1296.5,-2316.5 1790.5,-2316.5 1790.5,-2030.5 1296.5,-2030.5"/>
<text text-anchor="middle" x="1543.5" y="-2299.7" font-family="Times,serif" font-size="16.00">Tipologia luoghi (taxonomy_term:bundle:tipologia_luoghi)</text>
<polyline fill="none" stroke="green" points="1296.5,-2290.5 1790.5,-2290.5 "/>
<text text-anchor="middle" x="1543.5" y="-2273.7" font-family="Times,serif" font-size="16.00">Altro</text>
<polyline fill="none" stroke="green" points="1296.5,-2264.5 1790.5,-2264.5 "/>
<text text-anchor="middle" x="1543.5" y="-2247.7" font-family="Times,serif" font-size="16.00">Auditorium</text>
<polyline fill="none" stroke="green" points="1296.5,-2238.5 1790.5,-2238.5 "/>
<text text-anchor="middle" x="1543.5" y="-2221.7" font-family="Times,serif" font-size="16.00">Aula magna</text>
<polyline fill="none" stroke="green" points="1296.5,-2212.5 1790.5,-2212.5 "/>
<text text-anchor="middle" x="1543.5" y="-2195.7" font-family="Times,serif" font-size="16.00">Biiblioteca</text>
<polyline fill="none" stroke="green" points="1296.5,-2186.5 1790.5,-2186.5 "/>
<text text-anchor="middle" x="1543.5" y="-2169.7" font-family="Times,serif" font-size="16.00">Edificio scolastico</text>
<polyline fill="none" stroke="green" points="1296.5,-2160.5 1790.5,-2160.5 "/>
<text text-anchor="middle" x="1543.5" y="-2143.7" font-family="Times,serif" font-size="16.00">Laboratorio</text>
<polyline fill="none" stroke="green" points="1296.5,-2134.5 1790.5,-2134.5 "/>
<text text-anchor="middle" x="1543.5" y="-2117.7" font-family="Times,serif" font-size="16.00">Mensa</text>
<polyline fill="none" stroke="green" points="1296.5,-2108.5 1790.5,-2108.5 "/>
<text text-anchor="middle" x="1543.5" y="-2091.7" font-family="Times,serif" font-size="16.00">Palestra</text>
<polyline fill="none" stroke="green" points="1296.5,-2082.5 1790.5,-2082.5 "/>
<text text-anchor="middle" x="1543.5" y="-2065.7" font-family="Times,serif" font-size="16.00">Spazio all&#39;aperto</text>
<polyline fill="none" stroke="green" points="1296.5,-2056.5 1790.5,-2056.5 "/>
<text text-anchor="middle" x="1543.5" y="-2039.7" font-family="Times,serif" font-size="16.00">Teatro</text>
</g>
<!-- taxonomyTipologiaPosti -->
<g id="node15" class="node">
<title>taxonomyTipologiaPosti</title>
<polygon fill="none" stroke="green" points="1307.5,-177.5 1307.5,-281.5 1779.5,-281.5 1779.5,-177.5 1307.5,-177.5"/>
<text text-anchor="middle" x="1543.5" y="-264.7" font-family="Times,serif" font-size="16.00">Tipologia posti (taxonomy_term:bundle:tipologia_posti)</text>
<polyline fill="none" stroke="green" points="1307.5,-255.5 1779.5,-255.5 "/>
<text text-anchor="middle" x="1543.5" y="-238.7" font-family="Times,serif" font-size="16.00">Comune</text>
<polyline fill="none" stroke="green" points="1307.5,-229.5 1779.5,-229.5 "/>
<text text-anchor="middle" x="1543.5" y="-212.7" font-family="Times,serif" font-size="16.00">Potenziamento</text>
<polyline fill="none" stroke="green" points="1307.5,-203.5 1779.5,-203.5 "/>
<text text-anchor="middle" x="1543.5" y="-186.7" font-family="Times,serif" font-size="16.00">Sostegno</text>
</g>
<!-- taxonomyTipologiaServizi -->
<g id="node16" class="node">
<title>taxonomyTipologiaServizi</title>
<polygon fill="none" stroke="green" points="381,-3000.5 381,-3104.5 878,-3104.5 878,-3000.5 381,-3000.5"/>
<text text-anchor="middle" x="629.5" y="-3087.7" font-family="Times,serif" font-size="16.00">Tipologia servizi (taxonomy_term:bundle:tipologia_servizi)</text>
<polyline fill="none" stroke="green" points="381,-3078.5 878,-3078.5 "/>
<text text-anchor="middle" x="629.5" y="-3061.7" font-family="Times,serif" font-size="16.00">Servizi per il personale scolastico</text>
<polyline fill="none" stroke="green" points="381,-3052.5 878,-3052.5 "/>
<text text-anchor="middle" x="629.5" y="-3035.7" font-family="Times,serif" font-size="16.00">Servizi per le famiglie e studenti</text>
<polyline fill="none" stroke="green" points="381,-3026.5 878,-3026.5 "/>
<text text-anchor="middle" x="629.5" y="-3009.7" font-family="Times,serif" font-size="16.00">Servizi per i fornitori e le aziende</text>
</g>
<!-- taxonomyTipologiaStrutture -->
<g id="node17" class="node">
<title>taxonomyTipologiaStrutture</title>
<polygon fill="none" stroke="green" points="360,-3177.5 360,-3411.5 899,-3411.5 899,-3177.5 360,-3177.5"/>
<text text-anchor="middle" x="629.5" y="-3394.7" font-family="Times,serif" font-size="16.00">Tipologia strutture (taxonomy_term:bundle:tipologia_strutture)</text>
<polyline fill="none" stroke="green" points="360,-3385.5 899,-3385.5 "/>
<text text-anchor="middle" x="629.5" y="-3368.7" font-family="Times,serif" font-size="16.00">Altro</text>
<polyline fill="none" stroke="green" points="360,-3359.5 899,-3359.5 "/>
<text text-anchor="middle" x="629.5" y="-3342.7" font-family="Times,serif" font-size="16.00">Associazione scolastica</text>
<polyline fill="none" stroke="green" points="360,-3333.5 899,-3333.5 "/>
<text text-anchor="middle" x="629.5" y="-3316.7" font-family="Times,serif" font-size="16.00">Commissione</text>
<polyline fill="none" stroke="green" points="360,-3307.5 899,-3307.5 "/>
<text text-anchor="middle" x="629.5" y="-3290.7" font-family="Times,serif" font-size="16.00">Dipartimento</text>
<polyline fill="none" stroke="green" points="360,-3281.5 899,-3281.5 "/>
<text text-anchor="middle" x="629.5" y="-3264.7" font-family="Times,serif" font-size="16.00">Dirigenza scolastica</text>
<polyline fill="none" stroke="green" points="360,-3255.5 899,-3255.5 "/>
<text text-anchor="middle" x="629.5" y="-3238.7" font-family="Times,serif" font-size="16.00">Scuola/Itituto</text>
<polyline fill="none" stroke="green" points="360,-3229.5 899,-3229.5 "/>
<text text-anchor="middle" x="629.5" y="-3212.7" font-family="Times,serif" font-size="16.00">Organo collegiale</text>
<polyline fill="none" stroke="green" points="360,-3203.5 899,-3203.5 "/>
<text text-anchor="middle" x="629.5" y="-3186.7" font-family="Times,serif" font-size="16.00">Segreteria</text>
</g>
<!-- taxonomyTipologiaSupplenze -->
<g id="node18" class="node">
<title>taxonomyTipologiaSupplenze</title>
<polygon fill="none" stroke="green" points="1270.5,-0.5 1270.5,-104.5 1816.5,-104.5 1816.5,-0.5 1270.5,-0.5"/>
<text text-anchor="middle" x="1543.5" y="-87.7" font-family="Times,serif" font-size="16.00">Tipologia supplenze (taxonomy_term:bundle:tipologia_incarichi)</text>
<polyline fill="none" stroke="green" points="1270.5,-78.5 1816.5,-78.5 "/>
<text text-anchor="middle" x="1543.5" y="-61.7" font-family="Times,serif" font-size="16.00">Item 1</text>
<polyline fill="none" stroke="green" points="1270.5,-52.5 1816.5,-52.5 "/>
<text text-anchor="middle" x="1543.5" y="-35.7" font-family="Times,serif" font-size="16.00">Item 2</text>
<polyline fill="none" stroke="green" points="1270.5,-26.5 1816.5,-26.5 "/>
<text text-anchor="middle" x="1543.5" y="-9.7" font-family="Times,serif" font-size="16.00">Item 3</text>
</g>
<!-- nodePersona -->
<g id="node19" class="node">
<title>nodePersona</title>
<polygon fill="none" stroke="orange" points="335.5,-222.5 335.5,-872.5 923.5,-872.5 923.5,-222.5 335.5,-222.5"/>
<text text-anchor="middle" x="629.5" y="-855.7" font-family="Times,serif" font-size="16.00">Persona (node:bundle:persona)</text>
<polyline fill="none" stroke="orange" points="335.5,-846.5 923.5,-846.5 "/>
<text text-anchor="middle" x="629.5" y="-829.7" font-family="Times,serif" font-size="16.00">Nome (field_nome) *</text>
<polyline fill="none" stroke="orange" points="335.5,-820.5 923.5,-820.5 "/>
<text text-anchor="middle" x="629.5" y="-803.7" font-family="Times,serif" font-size="16.00">Cognome (field_cognome) *</text>
<polyline fill="none" stroke="orange" points="335.5,-794.5 923.5,-794.5 "/>
<text text-anchor="middle" x="629.5" y="-777.7" font-family="Times,serif" font-size="16.00">Foto della persona (field_ritratto)</text>
<polyline fill="none" stroke="orange" points="335.5,-768.5 923.5,-768.5 "/>
<text text-anchor="middle" x="629.5" y="-751.7" font-family="Times,serif" font-size="16.00">Ruolo nell&#39;organizzazione (field_ruolo_persona) *</text>
<polyline fill="none" stroke="orange" points="335.5,-742.5 923.5,-742.5 "/>
<text text-anchor="middle" x="629.5" y="-725.7" font-family="Times,serif" font-size="16.00">Ruolo (secondo livello)</text>
<polyline fill="none" stroke="orange" points="335.5,-716.5 923.5,-716.5 "/>
<text text-anchor="middle" x="629.5" y="-699.7" font-family="Times,serif" font-size="16.00">Biografia (field_abstract) *</text>
<polyline fill="none" stroke="orange" points="335.5,-690.5 923.5,-690.5 "/>
<text text-anchor="middle" x="629.5" y="-673.7" font-family="Times,serif" font-size="16.00">Dove lavora (view_luoghi?idPersona)</text>
<polyline fill="none" stroke="orange" points="335.5,-664.5 923.5,-664.5 "/>
<text text-anchor="middle" x="629.5" y="-647.7" font-family="Times,serif" font-size="16.00">Strutture di cui la persona è responsabile (view_strutture?idPersona)</text>
<polyline fill="none" stroke="orange" points="335.5,-638.5 923.5,-638.5 "/>
<text text-anchor="middle" x="629.5" y="-621.7" font-family="Times,serif" font-size="16.00">Materie (field_materie)</text>
<polyline fill="none" stroke="orange" points="335.5,-612.5 923.5,-612.5 "/>
<text text-anchor="middle" x="629.5" y="-595.7" font-family="Times,serif" font-size="16.00">Schede didattiche (view_schede_didattiche?idPersona)</text>
<polyline fill="none" stroke="orange" points="335.5,-586.5 923.5,-586.5 "/>
<text text-anchor="middle" x="629.5" y="-569.7" font-family="Times,serif" font-size="16.00">Progetti (view_progetti?idPersona)</text>
<polyline fill="none" stroke="orange" points="335.5,-560.5 923.5,-560.5 "/>
<text text-anchor="middle" x="629.5" y="-543.7" font-family="Times,serif" font-size="16.00">Documenti (view_documenti?idPersona)</text>
<polyline fill="none" stroke="orange" points="335.5,-534.5 923.5,-534.5 "/>
<text text-anchor="middle" x="629.5" y="-517.7" font-family="Times,serif" font-size="16.00">Ulteriori informazioni (field_extra_info)</text>
<polyline fill="none" stroke="orange" points="335.5,-508.5 923.5,-508.5 "/>
<text text-anchor="middle" x="629.5" y="-491.7" font-family="Times,serif" font-size="16.00">Numero di telefono pubblico (field_telefono)</text>
<polyline fill="none" stroke="orange" points="335.5,-482.5 923.5,-482.5 "/>
<text text-anchor="middle" x="629.5" y="-465.7" font-family="Times,serif" font-size="16.00">Indirizzo email pubblico (field_email)</text>
<polyline fill="none" stroke="orange" points="335.5,-456.5 923.5,-456.5 "/>
<text text-anchor="middle" x="629.5" y="-439.7" font-family="Times,serif" font-size="16.00">Metadati (display)</text>
<polyline fill="none" stroke="orange" points="335.5,-430.5 923.5,-430.5 "/>
<text text-anchor="middle" x="629.5" y="-413.7" font-family="Times,serif" font-size="16.00">Corellati (view_related?idPersona)</text>
<polyline fill="none" stroke="orange" points="335.5,-404.5 923.5,-404.5 "/>
<text text-anchor="middle" x="629.5" y="-387.7" font-family="Times,serif" font-size="16.00">Tipologia incarico (field_tipologia_incarico) *</text>
<polyline fill="none" stroke="orange" points="335.5,-378.5 923.5,-378.5 "/>
<text text-anchor="middle" x="629.5" y="-361.7" font-family="Times,serif" font-size="16.00">Darata incarico (field_data_fine) *</text>
<polyline fill="none" stroke="orange" points="335.5,-352.5 923.5,-352.5 "/>
<text text-anchor="middle" x="629.5" y="-335.7" font-family="Times,serif" font-size="16.00">Tipo posto (field_tipologia_posto)</text>
<polyline fill="none" stroke="orange" points="335.5,-326.5 923.5,-326.5 "/>
<text text-anchor="middle" x="629.5" y="-309.7" font-family="Times,serif" font-size="16.00">Tipo supplenza (field_tipologia_supplenza) *</text>
<polyline fill="none" stroke="orange" points="335.5,-300.5 923.5,-300.5 "/>
<text text-anchor="middle" x="629.5" y="-283.7" font-family="Times,serif" font-size="16.00">Genere (field_genere)</text>
<polyline fill="none" stroke="orange" points="335.5,-274.5 923.5,-274.5 "/>
<text text-anchor="middle" x="629.5" y="-257.7" font-family="Times,serif" font-size="16.00">Data di nascita (field_data_nascita)</text>
<polyline fill="none" stroke="orange" points="335.5,-248.5 923.5,-248.5 "/>
<text text-anchor="middle" x="629.5" y="-231.7" font-family="Times,serif" font-size="16.00">Codice fiscale (field_codice_fiscale)</text>
</g>
<!-- nodePersona&#45;&gt;paragraph -->
<g id="edge3" class="edge">
<title>nodePersona:field_extra_info&#45;&gt;paragraph:paragraphBundle</title>
<path fill="none" stroke="blue" d="M924.5,-521.5C997.38,-521.5 962.3,-609.71 1019,-655.5 1099.41,-720.43 1172.01,-663.06 1233,-746.5 1283.45,-815.51 1244.77,-1047.52 1269,-1129.5 1297.27,-1225.15 1274.88,-1328.2 1366.35,-1335.13"/>
<polygon fill="blue" stroke="blue" points="1366.51,-1335.14 1376.34,-1340 1371.5,-1335.32 1376.5,-1335.5 1376.5,-1335.5 1376.5,-1335.5 1371.5,-1335.32 1376.66,-1331 1366.51,-1335.14 1366.51,-1335.14"/>
<text text-anchor="middle" x="1126" y="-750.3" font-family="Times,serif" font-size="14.00">1..n : * </text>
</g>
<!-- nodePersona&#45;&gt;taxonomyMaterie -->
<g id="edge2" class="edge">
<title>nodePersona:field_materie&#45;&gt;taxonomyMaterie:taxonomyBundle</title>
<path fill="none" stroke="green" d="M924.5,-625.5C1116.6,-625.5 1166.23,-597.51 1353.32,-596.53"/>
<polygon fill="green" stroke="green" points="1353.5,-596.53 1363.51,-601 1358.5,-596.51 1363.5,-596.5 1363.5,-596.5 1363.5,-596.5 1358.5,-596.51 1363.49,-592 1353.5,-596.53 1353.5,-596.53"/>
<text text-anchor="middle" x="1126" y="-626.3" font-family="Times,serif" font-size="14.00">1..n</text>
</g>
<!-- nodePersona&#45;&gt;taxonomyRuoliPersona -->
<g id="edge1" class="edge">
<title>nodePersona:field_ruolo_persona&#45;&gt;taxonomyRuoliPersona:taxonomyBundle</title>
<path fill="none" stroke="green" d="M924.5,-755.5C1012.12,-755.5 1209.19,-869.07 1304.5,-877.06"/>
<polygon fill="green" stroke="green" points="1304.51,-877.06 1314.3,-882 1309.5,-877.28 1314.5,-877.5 1314.5,-877.5 1314.5,-877.5 1309.5,-877.28 1314.7,-873 1304.51,-877.06 1304.51,-877.06"/>
<text text-anchor="middle" x="1126" y="-864.3" font-family="Times,serif" font-size="14.00">1..n</text>
</g>
<!-- nodePersona&#45;&gt;taxonomyTipologiaIncarichi -->
<g id="edge4" class="edge">
<title>nodePersona:field_tipologia_incarico&#45;&gt;taxonomyTipologiaIncarichi:taxonomyBundle</title>
<path fill="none" stroke="green" d="M924.5,-391.5C1078.72,-391.5 1117.54,-418.85 1269.06,-419.49"/>
<polygon fill="green" stroke="green" points="1273.51,-414.5 1273.49,-424.5 1271.49,-424.49 1271.51,-414.49 1273.51,-414.5"/>
<polyline fill="none" stroke="green" points="1274.5,-419.5 1269.5,-419.49 "/>
<text text-anchor="middle" x="1126" y="-423.3" font-family="Times,serif" font-size="14.00">1..1</text>
</g>
<!-- nodePersona&#45;&gt;taxonomyTipologiaPosti -->
<g id="edge5" class="edge">
<title>nodePersona:field_tipologia_posto&#45;&gt;taxonomyTipologiaPosti:taxonomyBundle</title>
<path fill="none" stroke="green" d="M924.5,-339.5C1095.5,-339.5 1133.09,-269.88 1301.48,-268.52"/>
<polygon fill="green" stroke="green" points="1305.48,-263.5 1305.52,-273.5 1303.52,-273.51 1303.48,-263.51 1305.48,-263.5"/>
<polyline fill="none" stroke="green" points="1306.5,-268.5 1301.5,-268.52 "/>
<text text-anchor="middle" x="1126" y="-335.3" font-family="Times,serif" font-size="14.00">1..1</text>
</g>
<!-- nodePersona&#45;&gt;taxonomyTipologiaSupplenze -->
<g id="edge6" class="edge">
<title>nodePersona:field_tipologia_supplenza&#45;&gt;taxonomyTipologiaSupplenze:taxonomyBundle</title>
<path fill="none" stroke="green" d="M924.5,-313.5C977.57,-313.5 975.11,-270.34 1019,-240.5 1124.66,-168.66 1139.56,-93.58 1264.25,-91.54"/>
<polygon fill="green" stroke="green" points="1268.46,-86.51 1268.54,-96.51 1266.54,-96.52 1266.46,-86.52 1268.46,-86.51"/>
<polyline fill="none" stroke="green" points="1269.5,-91.5 1264.5,-91.54 "/>
<text text-anchor="middle" x="1126" y="-244.3" font-family="Times,serif" font-size="14.00">1..1</text>
</g>
<!-- nodeLuogo -->
<g id="node20" class="node">
<title>nodeLuogo</title>
<polygon fill="none" stroke="black" points="276,-1023.5 276,-2037.5 983,-2037.5 983,-1023.5 276,-1023.5"/>
<text text-anchor="middle" x="629.5" y="-2020.7" font-family="Times,serif" font-size="16.00">Luogo (node:bundle:luogo)</text>
<polyline fill="none" stroke="black" points="276,-2011.5 983,-2011.5 "/>
<text text-anchor="middle" x="629.5" y="-1994.7" font-family="Times,serif" font-size="16.00">Nome del luogo (title) *</text>
<polyline fill="none" stroke="black" points="276,-1985.5 983,-1985.5 "/>
<text text-anchor="middle" x="629.5" y="-1968.7" font-family="Times,serif" font-size="16.00">Descrizione breve (field_abstract) *</text>
<polyline fill="none" stroke="black" points="276,-1959.5 983,-1959.5 "/>
<text text-anchor="middle" x="629.5" y="-1942.7" font-family="Times,serif" font-size="16.00">Argomenti (field_argomenti) *</text>
<polyline fill="none" stroke="black" points="276,-1933.5 983,-1933.5 "/>
<text text-anchor="middle" x="629.5" y="-1916.7" font-family="Times,serif" font-size="16.00">Tipologia luogo (field_tipologia_luogo) *</text>
<polyline fill="none" stroke="black" points="276,-1907.5 983,-1907.5 "/>
<text text-anchor="middle" x="629.5" y="-1890.7" font-family="Times,serif" font-size="16.00">Immagine in evidenza (field_copertina) *</text>
<polyline fill="none" stroke="black" points="276,-1881.5 983,-1881.5 "/>
<text text-anchor="middle" x="629.5" y="-1864.7" font-family="Times,serif" font-size="16.00">Video (field_video)</text>
<polyline fill="none" stroke="black" points="276,-1855.5 983,-1855.5 "/>
<text text-anchor="middle" x="629.5" y="-1838.7" font-family="Times,serif" font-size="16.00">Galleria immagini (field_galleria_immagini)</text>
<polyline fill="none" stroke="black" points="276,-1829.5 983,-1829.5 "/>
<text text-anchor="middle" x="629.5" y="-1812.7" font-family="Times,serif" font-size="16.00">Descrizione estesa (body)</text>
<polyline fill="none" stroke="black" points="276,-1803.5 983,-1803.5 "/>
<text text-anchor="middle" x="629.5" y="-1786.7" font-family="Times,serif" font-size="16.00">Elementi di interesse del luogo (field_elementi_di_interesse)</text>
<polyline fill="none" stroke="black" points="276,-1777.5 983,-1777.5 "/>
<text text-anchor="middle" x="629.5" y="-1760.7" font-family="Times,serif" font-size="16.00">Parte di (field_luoghi)</text>
<polyline fill="none" stroke="black" points="276,-1751.5 983,-1751.5 "/>
<text text-anchor="middle" x="629.5" y="-1734.7" font-family="Times,serif" font-size="16.00">Indirizzo (field_indirizzo)</text>
<polyline fill="none" stroke="black" points="276,-1725.5 983,-1725.5 "/>
<text text-anchor="middle" x="629.5" y="-1708.7" font-family="Times,serif" font-size="16.00">Posizione GPS (field_coordinate_geograficche) *</text>
<polyline fill="none" stroke="black" points="276,-1699.5 983,-1699.5 "/>
<text text-anchor="middle" x="629.5" y="-1682.7" font-family="Times,serif" font-size="16.00">Orario per il pubblico *</text>
<polyline fill="none" stroke="black" points="276,-1673.5 983,-1673.5 "/>
<text text-anchor="middle" x="629.5" y="-1656.7" font-family="Times,serif" font-size="16.00">Email (field_email)</text>
<polyline fill="none" stroke="black" points="276,-1647.5 983,-1647.5 "/>
<text text-anchor="middle" x="629.5" y="-1630.7" font-family="Times,serif" font-size="16.00">Telefono (field_telefono)</text>
<polyline fill="none" stroke="black" points="276,-1621.5 983,-1621.5 "/>
<text text-anchor="middle" x="629.5" y="-1604.7" font-family="Times,serif" font-size="16.00">Modalità di accesso (field_attributi_luogo)</text>
<polyline fill="none" stroke="black" points="276,-1595.5 983,-1595.5 "/>
<text text-anchor="middle" x="629.5" y="-1578.7" font-family="Times,serif" font-size="16.00">Servizi presenti nel luogo (view_servizi?idLuogo)</text>
<polyline fill="none" stroke="black" points="276,-1569.5 983,-1569.5 "/>
<text text-anchor="middle" x="629.5" y="-1552.7" font-family="Times,serif" font-size="16.00">Il luogo è sede di (view_strutture_organizzative?idLuogo&amp;sede)</text>
<polyline fill="none" stroke="black" points="276,-1543.5 983,-1543.5 "/>
<text text-anchor="middle" x="629.5" y="-1526.7" font-family="Times,serif" font-size="16.00">Strutture che gestiscono il luogo (view_strutture_organizzative?idLuogo&amp;struttura)</text>
<polyline fill="none" stroke="black" points="276,-1517.5 983,-1517.5 "/>
<text text-anchor="middle" x="629.5" y="-1500.7" font-family="Times,serif" font-size="16.00">Persone che gestiscono il luogo (view_persone?idLuogo)</text>
<polyline fill="none" stroke="black" points="276,-1491.5 983,-1491.5 "/>
<text text-anchor="middle" x="629.5" y="-1474.7" font-family="Times,serif" font-size="16.00">Riferimento telefonico (view_struttura_responsabile)</text>
<polyline fill="none" stroke="black" points="276,-1465.5 983,-1465.5 "/>
<text text-anchor="middle" x="629.5" y="-1448.7" font-family="Times,serif" font-size="16.00">Riferimento email (view_struttura_responsabile)</text>
<polyline fill="none" stroke="black" points="276,-1439.5 983,-1439.5 "/>
<text text-anchor="middle" x="629.5" y="-1422.7" font-family="Times,serif" font-size="16.00">Ulteriori informazioni (field_extra_info)</text>
<polyline fill="none" stroke="black" points="276,-1413.5 983,-1413.5 "/>
<text text-anchor="middle" x="629.5" y="-1396.7" font-family="Times,serif" font-size="16.00">Spazio prenotabile (field_prenotabile)</text>
<polyline fill="none" stroke="black" points="276,-1387.5 983,-1387.5 "/>
<text text-anchor="middle" x="629.5" y="-1370.7" font-family="Times,serif" font-size="16.00">Anno di costruzione (field_anno_costruzione)</text>
<polyline fill="none" stroke="black" points="276,-1361.5 983,-1361.5 "/>
<text text-anchor="middle" x="629.5" y="-1344.7" font-family="Times,serif" font-size="16.00">Numero piani (field_numero_piani)</text>
<polyline fill="none" stroke="black" points="276,-1335.5 983,-1335.5 "/>
<text text-anchor="middle" x="629.5" y="-1318.7" font-family="Times,serif" font-size="16.00">Posti a sedere (field_posti)</text>
<polyline fill="none" stroke="black" points="276,-1309.5 983,-1309.5 "/>
<text text-anchor="middle" x="629.5" y="-1292.7" font-family="Times,serif" font-size="16.00">Metadati (display)</text>
<polyline fill="none" stroke="black" points="276,-1283.5 983,-1283.5 "/>
<text text-anchor="middle" x="629.5" y="-1266.7" font-family="Times,serif" font-size="16.00">Correlati novità (views)</text>
<polyline fill="none" stroke="black" points="276,-1257.5 983,-1257.5 "/>
<text text-anchor="middle" x="629.5" y="-1240.7" font-family="Times,serif" font-size="16.00">Codice edificio (field_codice_identificativo)</text>
<polyline fill="none" stroke="black" points="276,-1231.5 983,-1231.5 "/>
<text text-anchor="middle" x="629.5" y="-1214.7" font-family="Times,serif" font-size="16.00">Codice comune (field_codice_catastale_comune)</text>
<polyline fill="none" stroke="black" points="276,-1205.5 983,-1205.5 "/>
<text text-anchor="middle" x="629.5" y="-1188.7" font-family="Times,serif" font-size="16.00">Desccrizione codice comune</text>
<polyline fill="none" stroke="black" points="276,-1179.5 983,-1179.5 "/>
<text text-anchor="middle" x="629.5" y="-1162.7" font-family="Times,serif" font-size="16.00">Uso scolastico (field_uso_sccolastico)</text>
<polyline fill="none" stroke="black" points="276,-1153.5 983,-1153.5 "/>
<text text-anchor="middle" x="629.5" y="-1136.7" font-family="Times,serif" font-size="16.00">Altri usi (field_destinazione_uso)</text>
<polyline fill="none" stroke="black" points="276,-1127.5 983,-1127.5 "/>
<text text-anchor="middle" x="629.5" y="-1110.7" font-family="Times,serif" font-size="16.00">Anno adattamento (field_anno_adattamento)</text>
<polyline fill="none" stroke="black" points="276,-1101.5 983,-1101.5 "/>
<text text-anchor="middle" x="629.5" y="-1084.7" font-family="Times,serif" font-size="16.00">Superficie area totale (field_superficie_area_totale)</text>
<polyline fill="none" stroke="black" points="276,-1075.5 983,-1075.5 "/>
<text text-anchor="middle" x="629.5" y="-1058.7" font-family="Times,serif" font-size="16.00">Superficie area libera (field_superficie_area_libera)</text>
<polyline fill="none" stroke="black" points="276,-1049.5 983,-1049.5 "/>
<text text-anchor="middle" x="629.5" y="-1032.7" font-family="Times,serif" font-size="16.00">Volume (field_volume)</text>
</g>
<!-- nodeLuogo&#45;&gt;address -->
<g id="edge14" class="edge">
<title>nodeLuogo:field_indirizzo&#45;&gt;address:address</title>
<path fill="none" stroke="purple" d="M983,-1738.5C999.02,-1738.5 1002.98,-1736.94 1019,-1736.5 1114.07,-1733.86 1137.89,-1735.46 1233,-1736.5 1332.35,-1737.59 1358.45,-1741.36 1455.24,-1741.5"/>
<polygon fill="purple" stroke="purple" points="1459.5,-1736.5 1459.5,-1746.5 1457.5,-1746.5 1457.5,-1736.5 1459.5,-1736.5"/>
<polyline fill="none" stroke="purple" points="1460.5,-1741.5 1455.5,-1741.5 "/>
<text text-anchor="middle" x="1126" y="-1740.3" font-family="Times,serif" font-size="14.00">1..1</text>
</g>
<!-- nodeLuogo&#45;&gt;media -->
<g id="edge9" class="edge">
<title>nodeLuogo:field_copertina&#45;&gt;media:mediaBundle</title>
<path fill="none" stroke="red" d="M983,-1894.5C1011.48,-1894.5 993.84,-1934.17 1019,-1947.5 1171.66,-2028.35 1235.79,-1946.14 1406.42,-1944.52"/>
<polygon fill="red" stroke="red" points="1410.48,-1939.5 1410.52,-1949.5 1408.52,-1949.51 1408.48,-1939.51 1410.48,-1939.5"/>
<polyline fill="none" stroke="red" points="1411.5,-1944.5 1406.5,-1944.52 "/>
<text text-anchor="middle" x="1126" y="-1986.3" font-family="Times,serif" font-size="14.00">1..1 : image</text>
</g>
<!-- nodeLuogo&#45;&gt;media -->
<g id="edge10" class="edge">
<title>nodeLuogo:field_video&#45;&gt;media:mediaBundle</title>
<path fill="none" stroke="red" d="M983,-1868.5C1173.02,-1868.5 1216.57,-1941.85 1401.44,-1944.43"/>
<polygon fill="red" stroke="red" points="1401.5,-1944.43 1411.47,-1949 1406.5,-1944.47 1411.5,-1944.5 1411.5,-1944.5 1411.5,-1944.5 1406.5,-1944.47 1411.53,-1940 1401.5,-1944.43 1401.5,-1944.43"/>
<text text-anchor="middle" x="1126" y="-1921.3" font-family="Times,serif" font-size="14.00">1..n : video</text>
</g>
<!-- nodeLuogo&#45;&gt;media -->
<g id="edge11" class="edge">
<title>nodeLuogo:field_galleria_immagini&#45;&gt;media:mediaBundle</title>
<path fill="none" stroke="red" d="M983,-1842.5C999.22,-1842.5 1002.83,-1837.84 1019,-1836.5 1113.79,-1828.66 1141.39,-1810.94 1233,-1836.5 1318.91,-1860.47 1318.91,-1938.26 1401.31,-1944.15"/>
<polygon fill="red" stroke="red" points="1401.51,-1944.15 1411.34,-1949 1406.5,-1944.33 1411.5,-1944.5 1411.5,-1944.5 1411.5,-1944.5 1406.5,-1944.33 1411.66,-1940 1401.51,-1944.15 1401.51,-1944.15"/>
<text text-anchor="middle" x="1126" y="-1840.3" font-family="Times,serif" font-size="14.00">1..n : image</text>
</g>
<!-- nodeLuogo&#45;&gt;paragraph -->
<g id="edge12" class="edge">
<title>nodeLuogo:field_elementi_di_interesse&#45;&gt;paragraph:paragraphBundle</title>
<path fill="none" stroke="blue" d="M983,-1790.5C1046.62,-1790.5 981.88,-1558.16 1019,-1506.5 1068.53,-1437.57 1272.9,-1342.65 1366.46,-1335.88"/>
<polygon fill="blue" stroke="blue" points="1366.51,-1335.88 1376.67,-1340 1371.5,-1335.69 1376.5,-1335.5 1376.5,-1335.5 1376.5,-1335.5 1371.5,-1335.69 1376.33,-1331 1366.51,-1335.88 1366.51,-1335.88"/>
<text text-anchor="middle" x="1126" y="-1510.3" font-family="Times,serif" font-size="14.00">1..n : content, node_reference</text>
</g>
<!-- nodeLuogo&#45;&gt;paragraph -->
<g id="edge16" class="edge">
<title>nodeLuogo:field_extra_info&#45;&gt;paragraph:paragraphBundle</title>
<path fill="none" stroke="blue" d="M983,-1426.5C1024.03,-1426.5 984.99,-1364.44 1019,-1341.5 1147.91,-1254.54 1214.69,-1332.02 1366.38,-1335.39"/>
<polygon fill="blue" stroke="blue" points="1366.5,-1335.39 1376.45,-1340 1371.5,-1335.44 1376.5,-1335.5 1376.5,-1335.5 1376.5,-1335.5 1371.5,-1335.44 1376.55,-1331 1366.5,-1335.39 1366.5,-1335.39"/>
<text text-anchor="middle" x="1126" y="-1345.3" font-family="Times,serif" font-size="14.00">1..n : * </text>
</g>
<!-- nodeLuogo&#45;&gt;taxonomyArgomenti -->
<g id="edge7" class="edge">
<title>nodeLuogo:field_argomenti&#45;&gt;taxonomyArgomenti:taxonomyBundle</title>
<path fill="none" stroke="green" d="M983,-1946.5C1025.63,-1946.5 995.6,-2292.86 1019,-2328.5 1094.1,-2442.86 1152.36,-2478.75 1285.37,-2480.44"/>
<polygon fill="green" stroke="green" points="1285.5,-2480.44 1295.47,-2485 1290.5,-2480.47 1295.5,-2480.5 1295.5,-2480.5 1295.5,-2480.5 1290.5,-2480.47 1295.53,-2476 1285.5,-2480.44 1285.5,-2480.44"/>
<text text-anchor="middle" x="1126" y="-2480.3" font-family="Times,serif" font-size="14.00">1..n</text>
</g>
<!-- nodeLuogo&#45;&gt;taxonomyAttributiDeiLuoghi -->
<g id="edge15" class="edge">
<title>nodeLuogo:field_attributi_luogo&#45;&gt;taxonomyAttributiDeiLuoghi:taxonomyBundle</title>
<path fill="none" stroke="green" d="M983,-1608.5C1110.41,-1608.5 1136.78,-1542.14 1258.87,-1538.64"/>
<polygon fill="green" stroke="green" points="1259,-1538.64 1269.06,-1543 1264,-1538.57 1269,-1538.5 1269,-1538.5 1269,-1538.5 1264,-1538.57 1268.94,-1534 1259,-1538.64 1259,-1538.64"/>
<text text-anchor="middle" x="1126" y="-1610.3" font-family="Times,serif" font-size="14.00">1..n</text>
</g>
<!-- nodeLuogo&#45;&gt;taxonomyDestinazioneUso -->
<g id="edge17" class="edge">
<title>nodeLuogo:field_destinazione_uso&#45;&gt;taxonomyDestinazioneUso:taxonomyBundle</title>
<path fill="none" stroke="green" d="M983,-1140.5C1130.54,-1140.5 1163.45,-1081.9 1308.3,-1080.52"/>
<polygon fill="green" stroke="green" points="1312.48,-1075.5 1312.52,-1085.5 1310.52,-1085.51 1310.48,-1075.51 1312.48,-1075.5"/>
<polyline fill="none" stroke="green" points="1313.5,-1080.5 1308.5,-1080.52 "/>
<text text-anchor="middle" x="1126" y="-1142.3" font-family="Times,serif" font-size="14.00">1..1</text>
</g>
<!-- nodeLuogo&#45;&gt;taxonomyTipologiaLuoghi -->
<g id="edge8" class="edge">
<title>nodeLuogo:field_tipologia_luogo&#45;&gt;taxonomyTipologiaLuoghi:taxonomyBundle</title>
<path fill="none" stroke="green" d="M983,-1920.5C1028.15,-1920.5 994.88,-1977.33 1019,-2015.5 1112.87,-2164.03 1117.97,-2300.8 1290.35,-2303.46"/>
<polygon fill="green" stroke="green" points="1294.54,-2298.49 1294.46,-2308.49 1292.46,-2308.48 1292.54,-2298.48 1294.54,-2298.49"/>
<polyline fill="none" stroke="green" points="1295.5,-2303.5 1290.5,-2303.46 "/>
<text text-anchor="middle" x="1126" y="-2299.3" font-family="Times,serif" font-size="14.00">1..1</text>
</g>
<!-- nodeLuogo&#45;&gt;nodeLuogo -->
<g id="edge13" class="edge">
<title>nodeLuogo:field_luoghi&#45;&gt;nodeLuogo:nodeBundle</title>
<path fill="none" stroke="black" d="M531.09,-1751.47C320.79,-1732.01 28,-1752.65 28,-1894.5 28,-2035.17 315.95,-2056.63 525.84,-2038"/>
<polygon fill="black" stroke="black" points="529.65,-2032.64 530.55,-2042.6 528.56,-2042.78 527.66,-2032.82 529.65,-2032.64"/>
<polyline fill="none" stroke="black" points="531.09,-2037.53 526.12,-2037.98 "/>
<text text-anchor="middle" x="14" y="-1526.8" font-family="Times,serif" font-size="14.00">1..1</text>
</g>
</g>
</svg>
